0
SECTION
2
HEADER
9
$INSUNITS
70
4
0
ENDSEC
0
SECTION
2
ENTITIES
0
LWPOLYLINE
8
CUT_3P5MM
90
4
70
1
10
0
20
0
10
296
20
0
10
296
20
173.5
10
0
20
173.5
0
CIRCLE
8
CUT_3P5MM
10
8
20
159.5
40
1.75
0
CIRCLE
8
CUT_3P5MM
10
8
20
40.5
40
1.75
0
CIRCLE
8
CUT_3P5MM
10
49
20
39.5
40
1.75
0
CIRCLE
8
CUT_3P5MM
10
74
20
25.5
40
1.75
0
CIRCLE
8
CUT_3P5MM
10
126
20
80.5
40
1.75
0
CIRCLE
8
CUT_3P5MM
10
126
20
28.5
40
1.75
0
CIRCLE
8
CUT_3P5MM
10
126
20
13.5
40
1.75
0
CIRCLE
8
CUT_3P5MM
10
182
20
80.5
40
1.75
0
CIRCLE
8
CUT_3P5MM
10
182
20
25.5
40
1.75
0
CIRCLE
8
CUT_3P5MM
10
195
20
11.5
40
1.75
0
CIRCLE
8
CUT_3P5MM
10
292
20
158.5
40
1.75
0
CIRCLE
8
CUT_3P5MM
10
292
20
27.5
40
1.75
0
CIRCLE
8
CUT_3MM
10
270
20
129.5
40
1.5
0
CIRCLE
8
CUT_3MM
10
274
20
129.5
40
1.5
0
CIRCLE
8
CUT_3MM
10
278
20
129.5
40
1.5
0
CIRCLE
8
CUT_3MM
10
272
20
125.5
40
1.5
0
CIRCLE
8
CUT_3MM
10
276
20
125.5
40
1.5
0
CIRCLE
8
CUT_2MM
10
126
20
168
40
1
0
CIRCLE
8
CUT_2MM
10
129
20
168
40
1
0
CIRCLE
8
CUT_2MM
10
126
20
164.5
40
1
0
CIRCLE
8
CUT_2MM
10
129
20
164.5
40
1
0
CIRCLE
8
CUT_2MM
10
269
20
120.5
40
1
0
CIRCLE
8
CUT_2MM
10
273
20
120.5
40
1
0
CIRCLE
8
CUT_2MM
10
277
20
120.5
40
1
0
CIRCLE
8
CUT_2MM
10
271
20
116.8
40
1
0
CIRCLE
8
CUT_2MM
10
275
20
116.8
40
1
0
ENDSEC
0
EOF
